<mxfile host="65bd71144e">
    <diagram id="xRcqVcidd9in8_L7Tt4t" name="Page-1">
        <mxGraphModel dx="1222" dy="892" grid="1" gridSize="10" guides="1" tooltips="1" connect="1" arrows="1" fold="1" page="1" pageScale="1" pageWidth="850" pageHeight="1100" math="0" shadow="0">
            <root>
                <mxCell id="0"/>
                <mxCell id="1" parent="0"/>
                <mxCell id="3" value="" style="shape=table;startSize=0;container=1;collapsible=0;childLayout=tableLayout;" vertex="1" parent="1">
                    <mxGeometry x="70" y="28" width="730" height="1045" as="geometry"/>
                </mxCell>
                <mxCell id="4" value="" style="shape=tableRow;horizontal=0;startSize=0;swimlaneHead=0;swimlaneBody=0;strokeColor=inherit;top=0;left=0;bottom=0;right=0;collapsible=0;dropTarget=0;fillColor=none;points=[[0,0.5],[1,0.5]];portConstraint=eastwest;" vertex="1" parent="3">
                    <mxGeometry width="730" height="61" as="geometry"/>
                </mxCell>
                <mxCell id="5" value="" style="shape=partialRectangle;html=1;whiteSpace=wrap;connectable=0;strokeColor=inherit;overflow=hidden;fillColor=none;top=0;left=0;bottom=0;right=0;pointerEvents=1;shadow=0;" vertex="1" parent="4">
                    <mxGeometry width="49" height="61" as="geometry">
                        <mxRectangle width="49" height="61" as="alternateBounds"/>
                    </mxGeometry>
                </mxCell>
                <mxCell id="61" value="s" style="shape=partialRectangle;html=1;whiteSpace=wrap;connectable=0;strokeColor=inherit;overflow=hidden;fillColor=none;top=0;left=0;bottom=0;right=0;pointerEvents=1;" vertex="1" parent="4">
                    <mxGeometry x="49" width="141" height="61" as="geometry">
                        <mxRectangle width="141" height="61" as="alternateBounds"/>
                    </mxGeometry>
                </mxCell>
                <mxCell id="165" value="i" style="shape=partialRectangle;html=1;whiteSpace=wrap;connectable=0;strokeColor=inherit;overflow=hidden;fillColor=none;top=0;left=0;bottom=0;right=0;pointerEvents=1;" vertex="1" parent="4">
                    <mxGeometry x="190" width="60" height="61" as="geometry">
                        <mxRectangle width="60" height="61" as="alternateBounds"/>
                    </mxGeometry>
                </mxCell>
                <mxCell id="6" value="res" style="shape=partialRectangle;html=1;whiteSpace=wrap;connectable=0;strokeColor=inherit;overflow=hidden;fillColor=none;top=0;left=0;bottom=0;right=0;pointerEvents=1;" vertex="1" parent="4">
                    <mxGeometry x="250" width="100" height="61" as="geometry">
                        <mxRectangle width="100" height="61" as="alternateBounds"/>
                    </mxGeometry>
                </mxCell>
                <mxCell id="7" value="s[i]" style="shape=partialRectangle;html=1;whiteSpace=wrap;connectable=0;strokeColor=inherit;overflow=hidden;fillColor=none;top=0;left=0;bottom=0;right=0;pointerEvents=1;" vertex="1" parent="4">
                    <mxGeometry x="350" width="50" height="61" as="geometry">
                        <mxRectangle width="50" height="61" as="alternateBounds"/>
                    </mxGeometry>
                </mxCell>
                <mxCell id="8" value="s[i] is UPPER?" style="shape=partialRectangle;html=1;whiteSpace=wrap;connectable=0;strokeColor=inherit;overflow=hidden;fillColor=none;top=0;left=0;bottom=0;right=0;pointerEvents=1;" vertex="1" parent="4">
                    <mxGeometry x="400" width="110" height="61" as="geometry">
                        <mxRectangle width="110" height="61" as="alternateBounds"/>
                    </mxGeometry>
                </mxCell>
                <mxCell id="9" value="&lt;span style=&quot;color: rgb(0, 0, 0);&quot;&gt;current == next&lt;/span&gt;" style="shape=partialRectangle;html=1;whiteSpace=wrap;connectable=0;strokeColor=inherit;overflow=hidden;fillColor=none;top=0;left=0;bottom=0;right=0;pointerEvents=1;" vertex="1" parent="4">
                    <mxGeometry x="510" width="110" height="61" as="geometry">
                        <mxRectangle width="110" height="61" as="alternateBounds"/>
                    </mxGeometry>
                </mxCell>
                <mxCell id="10" value="return" style="shape=partialRectangle;html=1;whiteSpace=wrap;connectable=0;strokeColor=inherit;overflow=hidden;fillColor=none;top=0;left=0;bottom=0;right=0;pointerEvents=1;" vertex="1" parent="4">
                    <mxGeometry x="620" width="110" height="61" as="geometry">
                        <mxRectangle width="110" height="61" as="alternateBounds"/>
                    </mxGeometry>
                </mxCell>
                <mxCell id="12" value="" style="shape=tableRow;horizontal=0;startSize=0;swimlaneHead=0;swimlaneBody=0;strokeColor=inherit;top=0;left=0;bottom=0;right=0;collapsible=0;dropTarget=0;fillColor=none;points=[[0,0.5],[1,0.5]];portConstraint=eastwest;" vertex="1" parent="3">
                    <mxGeometry y="61" width="730" height="62" as="geometry"/>
                </mxCell>
                <mxCell id="13" value="1" style="shape=partialRectangle;html=1;whiteSpace=wrap;connectable=0;strokeColor=inherit;overflow=hidden;fillColor=none;top=0;left=0;bottom=0;right=0;pointerEvents=1;" vertex="1" parent="12">
                    <mxGeometry width="49" height="62" as="geometry">
                        <mxRectangle width="49" height="62" as="alternateBounds"/>
                    </mxGeometry>
                </mxCell>
                <mxCell id="62" value="K%%ABB23CCC??DD" style="shape=partialRectangle;html=1;whiteSpace=wrap;connectable=0;strokeColor=inherit;overflow=hidden;fillColor=none;top=0;left=0;bottom=0;right=0;pointerEvents=1;" vertex="1" parent="12">
                    <mxGeometry x="49" width="141" height="62" as="geometry">
                        <mxRectangle width="141" height="62" as="alternateBounds"/>
                    </mxGeometry>
                </mxCell>
                <mxCell id="166" value="0" style="shape=partialRectangle;html=1;whiteSpace=wrap;connectable=0;strokeColor=inherit;overflow=hidden;fillColor=none;top=0;left=0;bottom=0;right=0;pointerEvents=1;" vertex="1" parent="12">
                    <mxGeometry x="190" width="60" height="62" as="geometry">
                        <mxRectangle width="60" height="62" as="alternateBounds"/>
                    </mxGeometry>
                </mxCell>
                <mxCell id="14" value="" style="shape=partialRectangle;html=1;whiteSpace=wrap;connectable=0;strokeColor=inherit;overflow=hidden;fillColor=none;top=0;left=0;bottom=0;right=0;pointerEvents=1;" vertex="1" parent="12">
                    <mxGeometry x="250" width="100" height="62" as="geometry">
                        <mxRectangle width="100" height="62" as="alternateBounds"/>
                    </mxGeometry>
                </mxCell>
                <mxCell id="15" value="K" style="shape=partialRectangle;html=1;whiteSpace=wrap;connectable=0;strokeColor=inherit;overflow=hidden;fillColor=none;top=0;left=0;bottom=0;right=0;pointerEvents=1;" vertex="1" parent="12">
                    <mxGeometry x="350" width="50" height="62" as="geometry">
                        <mxRectangle width="50" height="62" as="alternateBounds"/>
                    </mxGeometry>
                </mxCell>
                <mxCell id="16" value="true" style="shape=partialRectangle;html=1;whiteSpace=wrap;connectable=0;strokeColor=inherit;overflow=hidden;fillColor=none;top=0;left=0;bottom=0;right=0;pointerEvents=1;" vertex="1" parent="12">
                    <mxGeometry x="400" width="110" height="62" as="geometry">
                        <mxRectangle width="110" height="62" as="alternateBounds"/>
                    </mxGeometry>
                </mxCell>
                <mxCell id="17" value="false" style="shape=partialRectangle;html=1;whiteSpace=wrap;connectable=0;strokeColor=inherit;overflow=hidden;fillColor=none;top=0;left=0;bottom=0;right=0;pointerEvents=1;" vertex="1" parent="12">
                    <mxGeometry x="510" width="110" height="62" as="geometry">
                        <mxRectangle width="110" height="62" as="alternateBounds"/>
                    </mxGeometry>
                </mxCell>
                <mxCell id="18" value="" style="shape=partialRectangle;html=1;whiteSpace=wrap;connectable=0;strokeColor=inherit;overflow=hidden;fillColor=none;top=0;left=0;bottom=0;right=0;pointerEvents=1;" vertex="1" parent="12">
                    <mxGeometry x="620" width="110" height="62" as="geometry">
                        <mxRectangle width="110" height="62" as="alternateBounds"/>
                    </mxGeometry>
                </mxCell>
                <mxCell id="20" value="" style="shape=tableRow;horizontal=0;startSize=0;swimlaneHead=0;swimlaneBody=0;strokeColor=inherit;top=0;left=0;bottom=0;right=0;collapsible=0;dropTarget=0;fillColor=none;points=[[0,0.5],[1,0.5]];portConstraint=eastwest;" vertex="1" parent="3">
                    <mxGeometry y="123" width="730" height="61" as="geometry"/>
                </mxCell>
                <mxCell id="21" value="2" style="shape=partialRectangle;html=1;whiteSpace=wrap;connectable=0;strokeColor=inherit;overflow=hidden;fillColor=none;top=0;left=0;bottom=0;right=0;pointerEvents=1;" vertex="1" parent="20">
                    <mxGeometry width="49" height="61" as="geometry">
                        <mxRectangle width="49" height="61" as="alternateBounds"/>
                    </mxGeometry>
                </mxCell>
                <mxCell id="63" style="shape=partialRectangle;html=1;whiteSpace=wrap;connectable=0;strokeColor=inherit;overflow=hidden;fillColor=none;top=0;left=0;bottom=0;right=0;pointerEvents=1;" vertex="1" parent="20">
                    <mxGeometry x="49" width="141" height="61" as="geometry">
                        <mxRectangle width="141" height="61" as="alternateBounds"/>
                    </mxGeometry>
                </mxCell>
                <mxCell id="167" value="1" style="shape=partialRectangle;html=1;whiteSpace=wrap;connectable=0;strokeColor=inherit;overflow=hidden;fillColor=none;top=0;left=0;bottom=0;right=0;pointerEvents=1;" vertex="1" parent="20">
                    <mxGeometry x="190" width="60" height="61" as="geometry">
                        <mxRectangle width="60" height="61" as="alternateBounds"/>
                    </mxGeometry>
                </mxCell>
                <mxCell id="22" value="K" style="shape=partialRectangle;html=1;whiteSpace=wrap;connectable=0;strokeColor=inherit;overflow=hidden;fillColor=none;top=0;left=0;bottom=0;right=0;pointerEvents=1;" vertex="1" parent="20">
                    <mxGeometry x="250" width="100" height="61" as="geometry">
                        <mxRectangle width="100" height="61" as="alternateBounds"/>
                    </mxGeometry>
                </mxCell>
                <mxCell id="23" value="%" style="shape=partialRectangle;html=1;whiteSpace=wrap;connectable=0;strokeColor=inherit;overflow=hidden;fillColor=none;top=0;left=0;bottom=0;right=0;pointerEvents=1;" vertex="1" parent="20">
                    <mxGeometry x="350" width="50" height="61" as="geometry">
                        <mxRectangle width="50" height="61" as="alternateBounds"/>
                    </mxGeometry>
                </mxCell>
                <mxCell id="24" value="false" style="shape=partialRectangle;html=1;whiteSpace=wrap;connectable=0;strokeColor=inherit;overflow=hidden;fillColor=none;top=0;left=0;bottom=0;right=0;pointerEvents=1;" vertex="1" parent="20">
                    <mxGeometry x="400" width="110" height="61" as="geometry">
                        <mxRectangle width="110" height="61" as="alternateBounds"/>
                    </mxGeometry>
                </mxCell>
                <mxCell id="25" value="true" style="shape=partialRectangle;html=1;whiteSpace=wrap;connectable=0;strokeColor=inherit;overflow=hidden;fillColor=none;top=0;left=0;bottom=0;right=0;pointerEvents=1;" vertex="1" parent="20">
                    <mxGeometry x="510" width="110" height="61" as="geometry">
                        <mxRectangle width="110" height="61" as="alternateBounds"/>
                    </mxGeometry>
                </mxCell>
                <mxCell id="26" value="" style="shape=partialRectangle;html=1;whiteSpace=wrap;connectable=0;strokeColor=inherit;overflow=hidden;fillColor=none;top=0;left=0;bottom=0;right=0;pointerEvents=1;" vertex="1" parent="20">
                    <mxGeometry x="620" width="110" height="61" as="geometry">
                        <mxRectangle width="110" height="61" as="alternateBounds"/>
                    </mxGeometry>
                </mxCell>
                <mxCell id="28" value="" style="shape=tableRow;horizontal=0;startSize=0;swimlaneHead=0;swimlaneBody=0;strokeColor=inherit;top=0;left=0;bottom=0;right=0;collapsible=0;dropTarget=0;fillColor=none;points=[[0,0.5],[1,0.5]];portConstraint=eastwest;" vertex="1" parent="3">
                    <mxGeometry y="184" width="730" height="62" as="geometry"/>
                </mxCell>
                <mxCell id="29" value="3" style="shape=partialRectangle;html=1;whiteSpace=wrap;connectable=0;strokeColor=inherit;overflow=hidden;fillColor=none;top=0;left=0;bottom=0;right=0;pointerEvents=1;" vertex="1" parent="28">
                    <mxGeometry width="49" height="62" as="geometry">
                        <mxRectangle width="49" height="62" as="alternateBounds"/>
                    </mxGeometry>
                </mxCell>
                <mxCell id="64" style="shape=partialRectangle;html=1;whiteSpace=wrap;connectable=0;strokeColor=inherit;overflow=hidden;fillColor=none;top=0;left=0;bottom=0;right=0;pointerEvents=1;" vertex="1" parent="28">
                    <mxGeometry x="49" width="141" height="62" as="geometry">
                        <mxRectangle width="141" height="62" as="alternateBounds"/>
                    </mxGeometry>
                </mxCell>
                <mxCell id="168" value="2" style="shape=partialRectangle;html=1;whiteSpace=wrap;connectable=0;strokeColor=inherit;overflow=hidden;fillColor=none;top=0;left=0;bottom=0;right=0;pointerEvents=1;" vertex="1" parent="28">
                    <mxGeometry x="190" width="60" height="62" as="geometry">
                        <mxRectangle width="60" height="62" as="alternateBounds"/>
                    </mxGeometry>
                </mxCell>
                <mxCell id="30" value="K%" style="shape=partialRectangle;html=1;whiteSpace=wrap;connectable=0;strokeColor=inherit;overflow=hidden;fillColor=none;top=0;left=0;bottom=0;right=0;pointerEvents=1;" vertex="1" parent="28">
                    <mxGeometry x="250" width="100" height="62" as="geometry">
                        <mxRectangle width="100" height="62" as="alternateBounds"/>
                    </mxGeometry>
                </mxCell>
                <mxCell id="31" value="%" style="shape=partialRectangle;html=1;whiteSpace=wrap;connectable=0;strokeColor=inherit;overflow=hidden;fillColor=none;top=0;left=0;bottom=0;right=0;pointerEvents=1;" vertex="1" parent="28">
                    <mxGeometry x="350" width="50" height="62" as="geometry">
                        <mxRectangle width="50" height="62" as="alternateBounds"/>
                    </mxGeometry>
                </mxCell>
                <mxCell id="32" value="false" style="shape=partialRectangle;html=1;whiteSpace=wrap;connectable=0;strokeColor=inherit;overflow=hidden;fillColor=none;top=0;left=0;bottom=0;right=0;pointerEvents=1;" vertex="1" parent="28">
                    <mxGeometry x="400" width="110" height="62" as="geometry">
                        <mxRectangle width="110" height="62" as="alternateBounds"/>
                    </mxGeometry>
                </mxCell>
                <mxCell id="33" value="false" style="shape=partialRectangle;html=1;whiteSpace=wrap;connectable=0;strokeColor=inherit;overflow=hidden;fillColor=none;top=0;left=0;bottom=0;right=0;pointerEvents=1;" vertex="1" parent="28">
                    <mxGeometry x="510" width="110" height="62" as="geometry">
                        <mxRectangle width="110" height="62" as="alternateBounds"/>
                    </mxGeometry>
                </mxCell>
                <mxCell id="34" value="" style="shape=partialRectangle;html=1;whiteSpace=wrap;connectable=0;strokeColor=inherit;overflow=hidden;fillColor=none;top=0;left=0;bottom=0;right=0;pointerEvents=1;" vertex="1" parent="28">
                    <mxGeometry x="620" width="110" height="62" as="geometry">
                        <mxRectangle width="110" height="62" as="alternateBounds"/>
                    </mxGeometry>
                </mxCell>
                <mxCell id="36" value="" style="shape=tableRow;horizontal=0;startSize=0;swimlaneHead=0;swimlaneBody=0;strokeColor=inherit;top=0;left=0;bottom=0;right=0;collapsible=0;dropTarget=0;fillColor=none;points=[[0,0.5],[1,0.5]];portConstraint=eastwest;" vertex="1" parent="3">
                    <mxGeometry y="246" width="730" height="61" as="geometry"/>
                </mxCell>
                <mxCell id="37" value="4" style="shape=partialRectangle;html=1;whiteSpace=wrap;connectable=0;strokeColor=inherit;overflow=hidden;fillColor=none;top=0;left=0;bottom=0;right=0;pointerEvents=1;" vertex="1" parent="36">
                    <mxGeometry width="49" height="61" as="geometry">
                        <mxRectangle width="49" height="61" as="alternateBounds"/>
                    </mxGeometry>
                </mxCell>
                <mxCell id="65" style="shape=partialRectangle;html=1;whiteSpace=wrap;connectable=0;strokeColor=inherit;overflow=hidden;fillColor=none;top=0;left=0;bottom=0;right=0;pointerEvents=1;" vertex="1" parent="36">
                    <mxGeometry x="49" width="141" height="61" as="geometry">
                        <mxRectangle width="141" height="61" as="alternateBounds"/>
                    </mxGeometry>
                </mxCell>
                <mxCell id="169" value="3" style="shape=partialRectangle;html=1;whiteSpace=wrap;connectable=0;strokeColor=inherit;overflow=hidden;fillColor=none;top=0;left=0;bottom=0;right=0;pointerEvents=1;" vertex="1" parent="36">
                    <mxGeometry x="190" width="60" height="61" as="geometry">
                        <mxRectangle width="60" height="61" as="alternateBounds"/>
                    </mxGeometry>
                </mxCell>
                <mxCell id="38" value="&lt;span style=&quot;color: rgb(0, 0, 0);&quot;&gt;K%&lt;/span&gt;" style="shape=partialRectangle;html=1;whiteSpace=wrap;connectable=0;strokeColor=inherit;overflow=hidden;fillColor=none;top=0;left=0;bottom=0;right=0;pointerEvents=1;" vertex="1" parent="36">
                    <mxGeometry x="250" width="100" height="61" as="geometry">
                        <mxRectangle width="100" height="61" as="alternateBounds"/>
                    </mxGeometry>
                </mxCell>
                <mxCell id="39" value="A" style="shape=partialRectangle;html=1;whiteSpace=wrap;connectable=0;strokeColor=inherit;overflow=hidden;fillColor=none;top=0;left=0;bottom=0;right=0;pointerEvents=1;" vertex="1" parent="36">
                    <mxGeometry x="350" width="50" height="61" as="geometry">
                        <mxRectangle width="50" height="61" as="alternateBounds"/>
                    </mxGeometry>
                </mxCell>
                <mxCell id="40" value="true" style="shape=partialRectangle;html=1;whiteSpace=wrap;connectable=0;strokeColor=inherit;overflow=hidden;fillColor=none;top=0;left=0;bottom=0;right=0;pointerEvents=1;" vertex="1" parent="36">
                    <mxGeometry x="400" width="110" height="61" as="geometry">
                        <mxRectangle width="110" height="61" as="alternateBounds"/>
                    </mxGeometry>
                </mxCell>
                <mxCell id="41" value="false" style="shape=partialRectangle;html=1;whiteSpace=wrap;connectable=0;strokeColor=inherit;overflow=hidden;fillColor=none;top=0;left=0;bottom=0;right=0;pointerEvents=1;" vertex="1" parent="36">
                    <mxGeometry x="510" width="110" height="61" as="geometry">
                        <mxRectangle width="110" height="61" as="alternateBounds"/>
                    </mxGeometry>
                </mxCell>
                <mxCell id="42" value="" style="shape=partialRectangle;html=1;whiteSpace=wrap;connectable=0;strokeColor=inherit;overflow=hidden;fillColor=none;top=0;left=0;bottom=0;right=0;pointerEvents=1;" vertex="1" parent="36">
                    <mxGeometry x="620" width="110" height="61" as="geometry">
                        <mxRectangle width="110" height="61" as="alternateBounds"/>
                    </mxGeometry>
                </mxCell>
                <mxCell id="44" value="" style="shape=tableRow;horizontal=0;startSize=0;swimlaneHead=0;swimlaneBody=0;strokeColor=inherit;top=0;left=0;bottom=0;right=0;collapsible=0;dropTarget=0;fillColor=none;points=[[0,0.5],[1,0.5]];portConstraint=eastwest;" vertex="1" parent="3">
                    <mxGeometry y="307" width="730" height="62" as="geometry"/>
                </mxCell>
                <mxCell id="45" value="5" style="shape=partialRectangle;html=1;whiteSpace=wrap;connectable=0;strokeColor=inherit;overflow=hidden;fillColor=none;top=0;left=0;bottom=0;right=0;pointerEvents=1;" vertex="1" parent="44">
                    <mxGeometry width="49" height="62" as="geometry">
                        <mxRectangle width="49" height="62" as="alternateBounds"/>
                    </mxGeometry>
                </mxCell>
                <mxCell id="66" style="shape=partialRectangle;html=1;whiteSpace=wrap;connectable=0;strokeColor=inherit;overflow=hidden;fillColor=none;top=0;left=0;bottom=0;right=0;pointerEvents=1;" vertex="1" parent="44">
                    <mxGeometry x="49" width="141" height="62" as="geometry">
                        <mxRectangle width="141" height="62" as="alternateBounds"/>
                    </mxGeometry>
                </mxCell>
                <mxCell id="170" value="4" style="shape=partialRectangle;html=1;whiteSpace=wrap;connectable=0;strokeColor=inherit;overflow=hidden;fillColor=none;top=0;left=0;bottom=0;right=0;pointerEvents=1;" vertex="1" parent="44">
                    <mxGeometry x="190" width="60" height="62" as="geometry">
                        <mxRectangle width="60" height="62" as="alternateBounds"/>
                    </mxGeometry>
                </mxCell>
                <mxCell id="46" value="&lt;span style=&quot;color: rgb(0, 0, 0); font-family: Helvetica; font-size: 12px; font-style: normal; font-variant-ligatures: normal; font-variant-caps: normal; font-weight: 400; letter-spacing: normal; orphans: 2; text-align: center; text-indent: 0px; text-transform: none; widows: 2; word-spacing: 0px; -webkit-text-stroke-width: 0px; white-space: normal; background-color: rgb(251, 251, 251); text-decoration-thickness: initial; text-decoration-style: initial; text-decoration-color: initial; float: none; display: inline !important;&quot;&gt;K%A&lt;/span&gt;" style="shape=partialRectangle;html=1;whiteSpace=wrap;connectable=0;strokeColor=inherit;overflow=hidden;fillColor=none;top=0;left=0;bottom=0;right=0;pointerEvents=1;" vertex="1" parent="44">
                    <mxGeometry x="250" width="100" height="62" as="geometry">
                        <mxRectangle width="100" height="62" as="alternateBounds"/>
                    </mxGeometry>
                </mxCell>
                <mxCell id="47" value="B" style="shape=partialRectangle;html=1;whiteSpace=wrap;connectable=0;strokeColor=inherit;overflow=hidden;fillColor=none;top=0;left=0;bottom=0;right=0;pointerEvents=1;" vertex="1" parent="44">
                    <mxGeometry x="350" width="50" height="62" as="geometry">
                        <mxRectangle width="50" height="62" as="alternateBounds"/>
                    </mxGeometry>
                </mxCell>
                <mxCell id="48" value="true" style="shape=partialRectangle;html=1;whiteSpace=wrap;connectable=0;strokeColor=inherit;overflow=hidden;fillColor=none;top=0;left=0;bottom=0;right=0;pointerEvents=1;" vertex="1" parent="44">
                    <mxGeometry x="400" width="110" height="62" as="geometry">
                        <mxRectangle width="110" height="62" as="alternateBounds"/>
                    </mxGeometry>
                </mxCell>
                <mxCell id="49" value="true" style="shape=partialRectangle;html=1;whiteSpace=wrap;connectable=0;strokeColor=inherit;overflow=hidden;fillColor=none;top=0;left=0;bottom=0;right=0;pointerEvents=1;" vertex="1" parent="44">
                    <mxGeometry x="510" width="110" height="62" as="geometry">
                        <mxRectangle width="110" height="62" as="alternateBounds"/>
                    </mxGeometry>
                </mxCell>
                <mxCell id="50" value="" style="shape=partialRectangle;html=1;whiteSpace=wrap;connectable=0;strokeColor=inherit;overflow=hidden;fillColor=none;top=0;left=0;bottom=0;right=0;pointerEvents=1;" vertex="1" parent="44">
                    <mxGeometry x="620" width="110" height="62" as="geometry">
                        <mxRectangle width="110" height="62" as="alternateBounds"/>
                    </mxGeometry>
                </mxCell>
                <mxCell id="52" value="" style="shape=tableRow;horizontal=0;startSize=0;swimlaneHead=0;swimlaneBody=0;strokeColor=inherit;top=0;left=0;bottom=0;right=0;collapsible=0;dropTarget=0;fillColor=none;points=[[0,0.5],[1,0.5]];portConstraint=eastwest;" vertex="1" parent="3">
                    <mxGeometry y="369" width="730" height="61" as="geometry"/>
                </mxCell>
                <mxCell id="53" value="6" style="shape=partialRectangle;html=1;whiteSpace=wrap;connectable=0;strokeColor=inherit;overflow=hidden;fillColor=none;top=0;left=0;bottom=0;right=0;pointerEvents=1;" vertex="1" parent="52">
                    <mxGeometry width="49" height="61" as="geometry">
                        <mxRectangle width="49" height="61" as="alternateBounds"/>
                    </mxGeometry>
                </mxCell>
                <mxCell id="67" style="shape=partialRectangle;html=1;whiteSpace=wrap;connectable=0;strokeColor=inherit;overflow=hidden;fillColor=none;top=0;left=0;bottom=0;right=0;pointerEvents=1;" vertex="1" parent="52">
                    <mxGeometry x="49" width="141" height="61" as="geometry">
                        <mxRectangle width="141" height="61" as="alternateBounds"/>
                    </mxGeometry>
                </mxCell>
                <mxCell id="171" value="5" style="shape=partialRectangle;html=1;whiteSpace=wrap;connectable=0;strokeColor=inherit;overflow=hidden;fillColor=none;top=0;left=0;bottom=0;right=0;pointerEvents=1;" vertex="1" parent="52">
                    <mxGeometry x="190" width="60" height="61" as="geometry">
                        <mxRectangle width="60" height="61" as="alternateBounds"/>
                    </mxGeometry>
                </mxCell>
                <mxCell id="54" value="&lt;span style=&quot;color: rgb(0, 0, 0);&quot;&gt;K%A&lt;/span&gt;" style="shape=partialRectangle;html=1;whiteSpace=wrap;connectable=0;strokeColor=inherit;overflow=hidden;fillColor=none;top=0;left=0;bottom=0;right=0;pointerEvents=1;" vertex="1" parent="52">
                    <mxGeometry x="250" width="100" height="61" as="geometry">
                        <mxRectangle width="100" height="61" as="alternateBounds"/>
                    </mxGeometry>
                </mxCell>
                <mxCell id="55" value="B" style="shape=partialRectangle;html=1;whiteSpace=wrap;connectable=0;strokeColor=inherit;overflow=hidden;fillColor=none;top=0;left=0;bottom=0;right=0;pointerEvents=1;" vertex="1" parent="52">
                    <mxGeometry x="350" width="50" height="61" as="geometry">
                        <mxRectangle width="50" height="61" as="alternateBounds"/>
                    </mxGeometry>
                </mxCell>
                <mxCell id="56" value="true" style="shape=partialRectangle;html=1;whiteSpace=wrap;connectable=0;strokeColor=inherit;overflow=hidden;fillColor=none;top=0;left=0;bottom=0;right=0;pointerEvents=1;" vertex="1" parent="52">
                    <mxGeometry x="400" width="110" height="61" as="geometry">
                        <mxRectangle width="110" height="61" as="alternateBounds"/>
                    </mxGeometry>
                </mxCell>
                <mxCell id="57" value="false" style="shape=partialRectangle;html=1;whiteSpace=wrap;connectable=0;strokeColor=inherit;overflow=hidden;fillColor=none;top=0;left=0;bottom=0;right=0;pointerEvents=1;" vertex="1" parent="52">
                    <mxGeometry x="510" width="110" height="61" as="geometry">
                        <mxRectangle width="110" height="61" as="alternateBounds"/>
                    </mxGeometry>
                </mxCell>
                <mxCell id="58" value="" style="shape=partialRectangle;html=1;whiteSpace=wrap;connectable=0;strokeColor=inherit;overflow=hidden;fillColor=none;top=0;left=0;bottom=0;right=0;pointerEvents=1;" vertex="1" parent="52">
                    <mxGeometry x="620" width="110" height="61" as="geometry">
                        <mxRectangle width="110" height="61" as="alternateBounds"/>
                    </mxGeometry>
                </mxCell>
                <mxCell id="76" style="shape=tableRow;horizontal=0;startSize=0;swimlaneHead=0;swimlaneBody=0;strokeColor=inherit;top=0;left=0;bottom=0;right=0;collapsible=0;dropTarget=0;fillColor=none;points=[[0,0.5],[1,0.5]];portConstraint=eastwest;" vertex="1" parent="3">
                    <mxGeometry y="430" width="730" height="61" as="geometry"/>
                </mxCell>
                <mxCell id="77" value="7" style="shape=partialRectangle;html=1;whiteSpace=wrap;connectable=0;strokeColor=inherit;overflow=hidden;fillColor=none;top=0;left=0;bottom=0;right=0;pointerEvents=1;" vertex="1" parent="76">
                    <mxGeometry width="49" height="61" as="geometry">
                        <mxRectangle width="49" height="61" as="alternateBounds"/>
                    </mxGeometry>
                </mxCell>
                <mxCell id="78" style="shape=partialRectangle;html=1;whiteSpace=wrap;connectable=0;strokeColor=inherit;overflow=hidden;fillColor=none;top=0;left=0;bottom=0;right=0;pointerEvents=1;" vertex="1" parent="76">
                    <mxGeometry x="49" width="141" height="61" as="geometry">
                        <mxRectangle width="141" height="61" as="alternateBounds"/>
                    </mxGeometry>
                </mxCell>
                <mxCell id="172" value="6" style="shape=partialRectangle;html=1;whiteSpace=wrap;connectable=0;strokeColor=inherit;overflow=hidden;fillColor=none;top=0;left=0;bottom=0;right=0;pointerEvents=1;" vertex="1" parent="76">
                    <mxGeometry x="190" width="60" height="61" as="geometry">
                        <mxRectangle width="60" height="61" as="alternateBounds"/>
                    </mxGeometry>
                </mxCell>
                <mxCell id="79" value="&lt;span style=&quot;color: rgb(0, 0, 0);&quot;&gt;K%AB&lt;/span&gt;" style="shape=partialRectangle;html=1;whiteSpace=wrap;connectable=0;strokeColor=inherit;overflow=hidden;fillColor=none;top=0;left=0;bottom=0;right=0;pointerEvents=1;" vertex="1" parent="76">
                    <mxGeometry x="250" width="100" height="61" as="geometry">
                        <mxRectangle width="100" height="61" as="alternateBounds"/>
                    </mxGeometry>
                </mxCell>
                <mxCell id="80" value="2" style="shape=partialRectangle;html=1;whiteSpace=wrap;connectable=0;strokeColor=inherit;overflow=hidden;fillColor=none;top=0;left=0;bottom=0;right=0;pointerEvents=1;" vertex="1" parent="76">
                    <mxGeometry x="350" width="50" height="61" as="geometry">
                        <mxRectangle width="50" height="61" as="alternateBounds"/>
                    </mxGeometry>
                </mxCell>
                <mxCell id="81" value="false" style="shape=partialRectangle;html=1;whiteSpace=wrap;connectable=0;strokeColor=inherit;overflow=hidden;fillColor=none;top=0;left=0;bottom=0;right=0;pointerEvents=1;" vertex="1" parent="76">
                    <mxGeometry x="400" width="110" height="61" as="geometry">
                        <mxRectangle width="110" height="61" as="alternateBounds"/>
                    </mxGeometry>
                </mxCell>
                <mxCell id="82" value="false" style="shape=partialRectangle;html=1;whiteSpace=wrap;connectable=0;strokeColor=inherit;overflow=hidden;fillColor=none;top=0;left=0;bottom=0;right=0;pointerEvents=1;" vertex="1" parent="76">
                    <mxGeometry x="510" width="110" height="61" as="geometry">
                        <mxRectangle width="110" height="61" as="alternateBounds"/>
                    </mxGeometry>
                </mxCell>
                <mxCell id="83" style="shape=partialRectangle;html=1;whiteSpace=wrap;connectable=0;strokeColor=inherit;overflow=hidden;fillColor=none;top=0;left=0;bottom=0;right=0;pointerEvents=1;" vertex="1" parent="76">
                    <mxGeometry x="620" width="110" height="61" as="geometry">
                        <mxRectangle width="110" height="61" as="alternateBounds"/>
                    </mxGeometry>
                </mxCell>
                <mxCell id="68" style="shape=tableRow;horizontal=0;startSize=0;swimlaneHead=0;swimlaneBody=0;strokeColor=inherit;top=0;left=0;bottom=0;right=0;collapsible=0;dropTarget=0;fillColor=none;points=[[0,0.5],[1,0.5]];portConstraint=eastwest;" vertex="1" parent="3">
                    <mxGeometry y="491" width="730" height="61" as="geometry"/>
                </mxCell>
                <mxCell id="69" value="8" style="shape=partialRectangle;html=1;whiteSpace=wrap;connectable=0;strokeColor=inherit;overflow=hidden;fillColor=none;top=0;left=0;bottom=0;right=0;pointerEvents=1;" vertex="1" parent="68">
                    <mxGeometry width="49" height="61" as="geometry">
                        <mxRectangle width="49" height="61" as="alternateBounds"/>
                    </mxGeometry>
                </mxCell>
                <mxCell id="70" style="shape=partialRectangle;html=1;whiteSpace=wrap;connectable=0;strokeColor=inherit;overflow=hidden;fillColor=none;top=0;left=0;bottom=0;right=0;pointerEvents=1;" vertex="1" parent="68">
                    <mxGeometry x="49" width="141" height="61" as="geometry">
                        <mxRectangle width="141" height="61" as="alternateBounds"/>
                    </mxGeometry>
                </mxCell>
                <mxCell id="173" value="7" style="shape=partialRectangle;html=1;whiteSpace=wrap;connectable=0;strokeColor=inherit;overflow=hidden;fillColor=none;top=0;left=0;bottom=0;right=0;pointerEvents=1;" vertex="1" parent="68">
                    <mxGeometry x="190" width="60" height="61" as="geometry">
                        <mxRectangle width="60" height="61" as="alternateBounds"/>
                    </mxGeometry>
                </mxCell>
                <mxCell id="71" value="&lt;span style=&quot;color: rgb(0, 0, 0);&quot;&gt;K%AB&lt;/span&gt;" style="shape=partialRectangle;html=1;whiteSpace=wrap;connectable=0;strokeColor=inherit;overflow=hidden;fillColor=none;top=0;left=0;bottom=0;right=0;pointerEvents=1;" vertex="1" parent="68">
                    <mxGeometry x="250" width="100" height="61" as="geometry">
                        <mxRectangle width="100" height="61" as="alternateBounds"/>
                    </mxGeometry>
                </mxCell>
                <mxCell id="72" value="3" style="shape=partialRectangle;html=1;whiteSpace=wrap;connectable=0;strokeColor=inherit;overflow=hidden;fillColor=none;top=0;left=0;bottom=0;right=0;pointerEvents=1;" vertex="1" parent="68">
                    <mxGeometry x="350" width="50" height="61" as="geometry">
                        <mxRectangle width="50" height="61" as="alternateBounds"/>
                    </mxGeometry>
                </mxCell>
                <mxCell id="73" value="false" style="shape=partialRectangle;html=1;whiteSpace=wrap;connectable=0;strokeColor=inherit;overflow=hidden;fillColor=none;top=0;left=0;bottom=0;right=0;pointerEvents=1;" vertex="1" parent="68">
                    <mxGeometry x="400" width="110" height="61" as="geometry">
                        <mxRectangle width="110" height="61" as="alternateBounds"/>
                    </mxGeometry>
                </mxCell>
                <mxCell id="74" value="false" style="shape=partialRectangle;html=1;whiteSpace=wrap;connectable=0;strokeColor=inherit;overflow=hidden;fillColor=none;top=0;left=0;bottom=0;right=0;pointerEvents=1;" vertex="1" parent="68">
                    <mxGeometry x="510" width="110" height="61" as="geometry">
                        <mxRectangle width="110" height="61" as="alternateBounds"/>
                    </mxGeometry>
                </mxCell>
                <mxCell id="75" style="shape=partialRectangle;html=1;whiteSpace=wrap;connectable=0;strokeColor=inherit;overflow=hidden;fillColor=none;top=0;left=0;bottom=0;right=0;pointerEvents=1;" vertex="1" parent="68">
                    <mxGeometry x="620" width="110" height="61" as="geometry">
                        <mxRectangle width="110" height="61" as="alternateBounds"/>
                    </mxGeometry>
                </mxCell>
                <mxCell id="100" style="shape=tableRow;horizontal=0;startSize=0;swimlaneHead=0;swimlaneBody=0;strokeColor=inherit;top=0;left=0;bottom=0;right=0;collapsible=0;dropTarget=0;fillColor=none;points=[[0,0.5],[1,0.5]];portConstraint=eastwest;" vertex="1" parent="3">
                    <mxGeometry y="552" width="730" height="61" as="geometry"/>
                </mxCell>
                <mxCell id="101" value="9" style="shape=partialRectangle;html=1;whiteSpace=wrap;connectable=0;strokeColor=inherit;overflow=hidden;fillColor=none;top=0;left=0;bottom=0;right=0;pointerEvents=1;" vertex="1" parent="100">
                    <mxGeometry width="49" height="61" as="geometry">
                        <mxRectangle width="49" height="61" as="alternateBounds"/>
                    </mxGeometry>
                </mxCell>
                <mxCell id="102" style="shape=partialRectangle;html=1;whiteSpace=wrap;connectable=0;strokeColor=inherit;overflow=hidden;fillColor=none;top=0;left=0;bottom=0;right=0;pointerEvents=1;" vertex="1" parent="100">
                    <mxGeometry x="49" width="141" height="61" as="geometry">
                        <mxRectangle width="141" height="61" as="alternateBounds"/>
                    </mxGeometry>
                </mxCell>
                <mxCell id="174" value="8" style="shape=partialRectangle;html=1;whiteSpace=wrap;connectable=0;strokeColor=inherit;overflow=hidden;fillColor=none;top=0;left=0;bottom=0;right=0;pointerEvents=1;" vertex="1" parent="100">
                    <mxGeometry x="190" width="60" height="61" as="geometry">
                        <mxRectangle width="60" height="61" as="alternateBounds"/>
                    </mxGeometry>
                </mxCell>
                <mxCell id="103" value="&lt;span style=&quot;color: rgb(0, 0, 0);&quot;&gt;K%AB&lt;/span&gt;" style="shape=partialRectangle;html=1;whiteSpace=wrap;connectable=0;strokeColor=inherit;overflow=hidden;fillColor=none;top=0;left=0;bottom=0;right=0;pointerEvents=1;" vertex="1" parent="100">
                    <mxGeometry x="250" width="100" height="61" as="geometry">
                        <mxRectangle width="100" height="61" as="alternateBounds"/>
                    </mxGeometry>
                </mxCell>
                <mxCell id="104" value="C" style="shape=partialRectangle;html=1;whiteSpace=wrap;connectable=0;strokeColor=inherit;overflow=hidden;fillColor=none;top=0;left=0;bottom=0;right=0;pointerEvents=1;" vertex="1" parent="100">
                    <mxGeometry x="350" width="50" height="61" as="geometry">
                        <mxRectangle width="50" height="61" as="alternateBounds"/>
                    </mxGeometry>
                </mxCell>
                <mxCell id="105" value="true" style="shape=partialRectangle;html=1;whiteSpace=wrap;connectable=0;strokeColor=inherit;overflow=hidden;fillColor=none;top=0;left=0;bottom=0;right=0;pointerEvents=1;" vertex="1" parent="100">
                    <mxGeometry x="400" width="110" height="61" as="geometry">
                        <mxRectangle width="110" height="61" as="alternateBounds"/>
                    </mxGeometry>
                </mxCell>
                <mxCell id="106" value="true" style="shape=partialRectangle;html=1;whiteSpace=wrap;connectable=0;strokeColor=inherit;overflow=hidden;fillColor=none;top=0;left=0;bottom=0;right=0;pointerEvents=1;" vertex="1" parent="100">
                    <mxGeometry x="510" width="110" height="61" as="geometry">
                        <mxRectangle width="110" height="61" as="alternateBounds"/>
                    </mxGeometry>
                </mxCell>
                <mxCell id="107" style="shape=partialRectangle;html=1;whiteSpace=wrap;connectable=0;strokeColor=inherit;overflow=hidden;fillColor=none;top=0;left=0;bottom=0;right=0;pointerEvents=1;" vertex="1" parent="100">
                    <mxGeometry x="620" width="110" height="61" as="geometry">
                        <mxRectangle width="110" height="61" as="alternateBounds"/>
                    </mxGeometry>
                </mxCell>
                <mxCell id="92" style="shape=tableRow;horizontal=0;startSize=0;swimlaneHead=0;swimlaneBody=0;strokeColor=inherit;top=0;left=0;bottom=0;right=0;collapsible=0;dropTarget=0;fillColor=none;points=[[0,0.5],[1,0.5]];portConstraint=eastwest;" vertex="1" parent="3">
                    <mxGeometry y="613" width="730" height="61" as="geometry"/>
                </mxCell>
                <mxCell id="93" value="10" style="shape=partialRectangle;html=1;whiteSpace=wrap;connectable=0;strokeColor=inherit;overflow=hidden;fillColor=none;top=0;left=0;bottom=0;right=0;pointerEvents=1;" vertex="1" parent="92">
                    <mxGeometry width="49" height="61" as="geometry">
                        <mxRectangle width="49" height="61" as="alternateBounds"/>
                    </mxGeometry>
                </mxCell>
                <mxCell id="94" style="shape=partialRectangle;html=1;whiteSpace=wrap;connectable=0;strokeColor=inherit;overflow=hidden;fillColor=none;top=0;left=0;bottom=0;right=0;pointerEvents=1;" vertex="1" parent="92">
                    <mxGeometry x="49" width="141" height="61" as="geometry">
                        <mxRectangle width="141" height="61" as="alternateBounds"/>
                    </mxGeometry>
                </mxCell>
                <mxCell id="175" value="9" style="shape=partialRectangle;html=1;whiteSpace=wrap;connectable=0;strokeColor=inherit;overflow=hidden;fillColor=none;top=0;left=0;bottom=0;right=0;pointerEvents=1;" vertex="1" parent="92">
                    <mxGeometry x="190" width="60" height="61" as="geometry">
                        <mxRectangle width="60" height="61" as="alternateBounds"/>
                    </mxGeometry>
                </mxCell>
                <mxCell id="95" value="&lt;span style=&quot;color: rgb(0, 0, 0);&quot;&gt;K%AB&lt;/span&gt;" style="shape=partialRectangle;html=1;whiteSpace=wrap;connectable=0;strokeColor=inherit;overflow=hidden;fillColor=none;top=0;left=0;bottom=0;right=0;pointerEvents=1;" vertex="1" parent="92">
                    <mxGeometry x="250" width="100" height="61" as="geometry">
                        <mxRectangle width="100" height="61" as="alternateBounds"/>
                    </mxGeometry>
                </mxCell>
                <mxCell id="96" value="C" style="shape=partialRectangle;html=1;whiteSpace=wrap;connectable=0;strokeColor=inherit;overflow=hidden;fillColor=none;top=0;left=0;bottom=0;right=0;pointerEvents=1;" vertex="1" parent="92">
                    <mxGeometry x="350" width="50" height="61" as="geometry">
                        <mxRectangle width="50" height="61" as="alternateBounds"/>
                    </mxGeometry>
                </mxCell>
                <mxCell id="97" value="true" style="shape=partialRectangle;html=1;whiteSpace=wrap;connectable=0;strokeColor=inherit;overflow=hidden;fillColor=none;top=0;left=0;bottom=0;right=0;pointerEvents=1;" vertex="1" parent="92">
                    <mxGeometry x="400" width="110" height="61" as="geometry">
                        <mxRectangle width="110" height="61" as="alternateBounds"/>
                    </mxGeometry>
                </mxCell>
                <mxCell id="98" value="true" style="shape=partialRectangle;html=1;whiteSpace=wrap;connectable=0;strokeColor=inherit;overflow=hidden;fillColor=none;top=0;left=0;bottom=0;right=0;pointerEvents=1;" vertex="1" parent="92">
                    <mxGeometry x="510" width="110" height="61" as="geometry">
                        <mxRectangle width="110" height="61" as="alternateBounds"/>
                    </mxGeometry>
                </mxCell>
                <mxCell id="99" style="shape=partialRectangle;html=1;whiteSpace=wrap;connectable=0;strokeColor=inherit;overflow=hidden;fillColor=none;top=0;left=0;bottom=0;right=0;pointerEvents=1;" vertex="1" parent="92">
                    <mxGeometry x="620" width="110" height="61" as="geometry">
                        <mxRectangle width="110" height="61" as="alternateBounds"/>
                    </mxGeometry>
                </mxCell>
                <mxCell id="84" style="shape=tableRow;horizontal=0;startSize=0;swimlaneHead=0;swimlaneBody=0;strokeColor=inherit;top=0;left=0;bottom=0;right=0;collapsible=0;dropTarget=0;fillColor=none;points=[[0,0.5],[1,0.5]];portConstraint=eastwest;" vertex="1" parent="3">
                    <mxGeometry y="674" width="730" height="66" as="geometry"/>
                </mxCell>
                <mxCell id="85" value="11" style="shape=partialRectangle;html=1;whiteSpace=wrap;connectable=0;strokeColor=inherit;overflow=hidden;fillColor=none;top=0;left=0;bottom=0;right=0;pointerEvents=1;" vertex="1" parent="84">
                    <mxGeometry width="49" height="66" as="geometry">
                        <mxRectangle width="49" height="66" as="alternateBounds"/>
                    </mxGeometry>
                </mxCell>
                <mxCell id="86" style="shape=partialRectangle;html=1;whiteSpace=wrap;connectable=0;strokeColor=inherit;overflow=hidden;fillColor=none;top=0;left=0;bottom=0;right=0;pointerEvents=1;" vertex="1" parent="84">
                    <mxGeometry x="49" width="141" height="66" as="geometry">
                        <mxRectangle width="141" height="66" as="alternateBounds"/>
                    </mxGeometry>
                </mxCell>
                <mxCell id="176" value="10" style="shape=partialRectangle;html=1;whiteSpace=wrap;connectable=0;strokeColor=inherit;overflow=hidden;fillColor=none;top=0;left=0;bottom=0;right=0;pointerEvents=1;" vertex="1" parent="84">
                    <mxGeometry x="190" width="60" height="66" as="geometry">
                        <mxRectangle width="60" height="66" as="alternateBounds"/>
                    </mxGeometry>
                </mxCell>
                <mxCell id="87" value="&lt;span style=&quot;color: rgb(0, 0, 0);&quot;&gt;K%AB&lt;/span&gt;" style="shape=partialRectangle;html=1;whiteSpace=wrap;connectable=0;strokeColor=inherit;overflow=hidden;fillColor=none;top=0;left=0;bottom=0;right=0;pointerEvents=1;" vertex="1" parent="84">
                    <mxGeometry x="250" width="100" height="66" as="geometry">
                        <mxRectangle width="100" height="66" as="alternateBounds"/>
                    </mxGeometry>
                </mxCell>
                <mxCell id="88" value="C" style="shape=partialRectangle;html=1;whiteSpace=wrap;connectable=0;strokeColor=inherit;overflow=hidden;fillColor=none;top=0;left=0;bottom=0;right=0;pointerEvents=1;" vertex="1" parent="84">
                    <mxGeometry x="350" width="50" height="66" as="geometry">
                        <mxRectangle width="50" height="66" as="alternateBounds"/>
                    </mxGeometry>
                </mxCell>
                <mxCell id="89" value="true" style="shape=partialRectangle;html=1;whiteSpace=wrap;connectable=0;strokeColor=inherit;overflow=hidden;fillColor=none;top=0;left=0;bottom=0;right=0;pointerEvents=1;" vertex="1" parent="84">
                    <mxGeometry x="400" width="110" height="66" as="geometry">
                        <mxRectangle width="110" height="66" as="alternateBounds"/>
                    </mxGeometry>
                </mxCell>
                <mxCell id="90" value="false" style="shape=partialRectangle;html=1;whiteSpace=wrap;connectable=0;strokeColor=inherit;overflow=hidden;fillColor=none;top=0;left=0;bottom=0;right=0;pointerEvents=1;" vertex="1" parent="84">
                    <mxGeometry x="510" width="110" height="66" as="geometry">
                        <mxRectangle width="110" height="66" as="alternateBounds"/>
                    </mxGeometry>
                </mxCell>
                <mxCell id="91" style="shape=partialRectangle;html=1;whiteSpace=wrap;connectable=0;strokeColor=inherit;overflow=hidden;fillColor=none;top=0;left=0;bottom=0;right=0;pointerEvents=1;" vertex="1" parent="84">
                    <mxGeometry x="620" width="110" height="66" as="geometry">
                        <mxRectangle width="110" height="66" as="alternateBounds"/>
                    </mxGeometry>
                </mxCell>
                <mxCell id="108" style="shape=tableRow;horizontal=0;startSize=0;swimlaneHead=0;swimlaneBody=0;strokeColor=inherit;top=0;left=0;bottom=0;right=0;collapsible=0;dropTarget=0;fillColor=none;points=[[0,0.5],[1,0.5]];portConstraint=eastwest;" vertex="1" parent="3">
                    <mxGeometry y="740" width="730" height="61" as="geometry"/>
                </mxCell>
                <mxCell id="109" value="12" style="shape=partialRectangle;html=1;whiteSpace=wrap;connectable=0;strokeColor=inherit;overflow=hidden;fillColor=none;top=0;left=0;bottom=0;right=0;pointerEvents=1;" vertex="1" parent="108">
                    <mxGeometry width="49" height="61" as="geometry">
                        <mxRectangle width="49" height="61" as="alternateBounds"/>
                    </mxGeometry>
                </mxCell>
                <mxCell id="110" style="shape=partialRectangle;html=1;whiteSpace=wrap;connectable=0;strokeColor=inherit;overflow=hidden;fillColor=none;top=0;left=0;bottom=0;right=0;pointerEvents=1;" vertex="1" parent="108">
                    <mxGeometry x="49" width="141" height="61" as="geometry">
                        <mxRectangle width="141" height="61" as="alternateBounds"/>
                    </mxGeometry>
                </mxCell>
                <mxCell id="177" value="11" style="shape=partialRectangle;html=1;whiteSpace=wrap;connectable=0;strokeColor=inherit;overflow=hidden;fillColor=none;top=0;left=0;bottom=0;right=0;pointerEvents=1;" vertex="1" parent="108">
                    <mxGeometry x="190" width="60" height="61" as="geometry">
                        <mxRectangle width="60" height="61" as="alternateBounds"/>
                    </mxGeometry>
                </mxCell>
                <mxCell id="111" value="&lt;span style=&quot;color: rgb(0, 0, 0);&quot;&gt;K%ABC&lt;/span&gt;" style="shape=partialRectangle;html=1;whiteSpace=wrap;connectable=0;strokeColor=inherit;overflow=hidden;fillColor=none;top=0;left=0;bottom=0;right=0;pointerEvents=1;" vertex="1" parent="108">
                    <mxGeometry x="250" width="100" height="61" as="geometry">
                        <mxRectangle width="100" height="61" as="alternateBounds"/>
                    </mxGeometry>
                </mxCell>
                <mxCell id="112" value="?" style="shape=partialRectangle;html=1;whiteSpace=wrap;connectable=0;strokeColor=inherit;overflow=hidden;fillColor=none;top=0;left=0;bottom=0;right=0;pointerEvents=1;" vertex="1" parent="108">
                    <mxGeometry x="350" width="50" height="61" as="geometry">
                        <mxRectangle width="50" height="61" as="alternateBounds"/>
                    </mxGeometry>
                </mxCell>
                <mxCell id="113" value="false" style="shape=partialRectangle;html=1;whiteSpace=wrap;connectable=0;strokeColor=inherit;overflow=hidden;fillColor=none;top=0;left=0;bottom=0;right=0;pointerEvents=1;" vertex="1" parent="108">
                    <mxGeometry x="400" width="110" height="61" as="geometry">
                        <mxRectangle width="110" height="61" as="alternateBounds"/>
                    </mxGeometry>
                </mxCell>
                <mxCell id="114" value="true" style="shape=partialRectangle;html=1;whiteSpace=wrap;connectable=0;strokeColor=inherit;overflow=hidden;fillColor=none;top=0;left=0;bottom=0;right=0;pointerEvents=1;" vertex="1" parent="108">
                    <mxGeometry x="510" width="110" height="61" as="geometry">
                        <mxRectangle width="110" height="61" as="alternateBounds"/>
                    </mxGeometry>
                </mxCell>
                <mxCell id="115" style="shape=partialRectangle;html=1;whiteSpace=wrap;connectable=0;strokeColor=inherit;overflow=hidden;fillColor=none;top=0;left=0;bottom=0;right=0;pointerEvents=1;" vertex="1" parent="108">
                    <mxGeometry x="620" width="110" height="61" as="geometry">
                        <mxRectangle width="110" height="61" as="alternateBounds"/>
                    </mxGeometry>
                </mxCell>
                <mxCell id="124" style="shape=tableRow;horizontal=0;startSize=0;swimlaneHead=0;swimlaneBody=0;strokeColor=inherit;top=0;left=0;bottom=0;right=0;collapsible=0;dropTarget=0;fillColor=none;points=[[0,0.5],[1,0.5]];portConstraint=eastwest;" vertex="1" parent="3">
                    <mxGeometry y="801" width="730" height="61" as="geometry"/>
                </mxCell>
                <mxCell id="125" value="13" style="shape=partialRectangle;html=1;whiteSpace=wrap;connectable=0;strokeColor=inherit;overflow=hidden;fillColor=none;top=0;left=0;bottom=0;right=0;pointerEvents=1;" vertex="1" parent="124">
                    <mxGeometry width="49" height="61" as="geometry">
                        <mxRectangle width="49" height="61" as="alternateBounds"/>
                    </mxGeometry>
                </mxCell>
                <mxCell id="126" style="shape=partialRectangle;html=1;whiteSpace=wrap;connectable=0;strokeColor=inherit;overflow=hidden;fillColor=none;top=0;left=0;bottom=0;right=0;pointerEvents=1;" vertex="1" parent="124">
                    <mxGeometry x="49" width="141" height="61" as="geometry">
                        <mxRectangle width="141" height="61" as="alternateBounds"/>
                    </mxGeometry>
                </mxCell>
                <mxCell id="178" value="12" style="shape=partialRectangle;html=1;whiteSpace=wrap;connectable=0;strokeColor=inherit;overflow=hidden;fillColor=none;top=0;left=0;bottom=0;right=0;pointerEvents=1;" vertex="1" parent="124">
                    <mxGeometry x="190" width="60" height="61" as="geometry">
                        <mxRectangle width="60" height="61" as="alternateBounds"/>
                    </mxGeometry>
                </mxCell>
                <mxCell id="127" value="&lt;span style=&quot;color: rgb(0, 0, 0);&quot;&gt;K%ABC?&lt;/span&gt;" style="shape=partialRectangle;html=1;whiteSpace=wrap;connectable=0;strokeColor=inherit;overflow=hidden;fillColor=none;top=0;left=0;bottom=0;right=0;pointerEvents=1;" vertex="1" parent="124">
                    <mxGeometry x="250" width="100" height="61" as="geometry">
                        <mxRectangle width="100" height="61" as="alternateBounds"/>
                    </mxGeometry>
                </mxCell>
                <mxCell id="128" value="?" style="shape=partialRectangle;html=1;whiteSpace=wrap;connectable=0;strokeColor=inherit;overflow=hidden;fillColor=none;top=0;left=0;bottom=0;right=0;pointerEvents=1;" vertex="1" parent="124">
                    <mxGeometry x="350" width="50" height="61" as="geometry">
                        <mxRectangle width="50" height="61" as="alternateBounds"/>
                    </mxGeometry>
                </mxCell>
                <mxCell id="129" value="false" style="shape=partialRectangle;html=1;whiteSpace=wrap;connectable=0;strokeColor=inherit;overflow=hidden;fillColor=none;top=0;left=0;bottom=0;right=0;pointerEvents=1;" vertex="1" parent="124">
                    <mxGeometry x="400" width="110" height="61" as="geometry">
                        <mxRectangle width="110" height="61" as="alternateBounds"/>
                    </mxGeometry>
                </mxCell>
                <mxCell id="130" value="false" style="shape=partialRectangle;html=1;whiteSpace=wrap;connectable=0;strokeColor=inherit;overflow=hidden;fillColor=none;top=0;left=0;bottom=0;right=0;pointerEvents=1;" vertex="1" parent="124">
                    <mxGeometry x="510" width="110" height="61" as="geometry">
                        <mxRectangle width="110" height="61" as="alternateBounds"/>
                    </mxGeometry>
                </mxCell>
                <mxCell id="131" style="shape=partialRectangle;html=1;whiteSpace=wrap;connectable=0;strokeColor=inherit;overflow=hidden;fillColor=none;top=0;left=0;bottom=0;right=0;pointerEvents=1;" vertex="1" parent="124">
                    <mxGeometry x="620" width="110" height="61" as="geometry">
                        <mxRectangle width="110" height="61" as="alternateBounds"/>
                    </mxGeometry>
                </mxCell>
                <mxCell id="116" style="shape=tableRow;horizontal=0;startSize=0;swimlaneHead=0;swimlaneBody=0;strokeColor=inherit;top=0;left=0;bottom=0;right=0;collapsible=0;dropTarget=0;fillColor=none;points=[[0,0.5],[1,0.5]];portConstraint=eastwest;" vertex="1" parent="3">
                    <mxGeometry y="862" width="730" height="61" as="geometry"/>
                </mxCell>
                <mxCell id="117" value="14" style="shape=partialRectangle;html=1;whiteSpace=wrap;connectable=0;strokeColor=inherit;overflow=hidden;fillColor=none;top=0;left=0;bottom=0;right=0;pointerEvents=1;" vertex="1" parent="116">
                    <mxGeometry width="49" height="61" as="geometry">
                        <mxRectangle width="49" height="61" as="alternateBounds"/>
                    </mxGeometry>
                </mxCell>
                <mxCell id="118" style="shape=partialRectangle;html=1;whiteSpace=wrap;connectable=0;strokeColor=inherit;overflow=hidden;fillColor=none;top=0;left=0;bottom=0;right=0;pointerEvents=1;" vertex="1" parent="116">
                    <mxGeometry x="49" width="141" height="61" as="geometry">
                        <mxRectangle width="141" height="61" as="alternateBounds"/>
                    </mxGeometry>
                </mxCell>
                <mxCell id="179" value="13" style="shape=partialRectangle;html=1;whiteSpace=wrap;connectable=0;strokeColor=inherit;overflow=hidden;fillColor=none;top=0;left=0;bottom=0;right=0;pointerEvents=1;" vertex="1" parent="116">
                    <mxGeometry x="190" width="60" height="61" as="geometry">
                        <mxRectangle width="60" height="61" as="alternateBounds"/>
                    </mxGeometry>
                </mxCell>
                <mxCell id="119" value="&lt;span style=&quot;color: rgb(0, 0, 0);&quot;&gt;K%ABC?&lt;/span&gt;" style="shape=partialRectangle;html=1;whiteSpace=wrap;connectable=0;strokeColor=inherit;overflow=hidden;fillColor=none;top=0;left=0;bottom=0;right=0;pointerEvents=1;" vertex="1" parent="116">
                    <mxGeometry x="250" width="100" height="61" as="geometry">
                        <mxRectangle width="100" height="61" as="alternateBounds"/>
                    </mxGeometry>
                </mxCell>
                <mxCell id="120" value="D" style="shape=partialRectangle;html=1;whiteSpace=wrap;connectable=0;strokeColor=inherit;overflow=hidden;fillColor=none;top=0;left=0;bottom=0;right=0;pointerEvents=1;" vertex="1" parent="116">
                    <mxGeometry x="350" width="50" height="61" as="geometry">
                        <mxRectangle width="50" height="61" as="alternateBounds"/>
                    </mxGeometry>
                </mxCell>
                <mxCell id="121" value="true" style="shape=partialRectangle;html=1;whiteSpace=wrap;connectable=0;strokeColor=inherit;overflow=hidden;fillColor=none;top=0;left=0;bottom=0;right=0;pointerEvents=1;" vertex="1" parent="116">
                    <mxGeometry x="400" width="110" height="61" as="geometry">
                        <mxRectangle width="110" height="61" as="alternateBounds"/>
                    </mxGeometry>
                </mxCell>
                <mxCell id="122" value="true" style="shape=partialRectangle;html=1;whiteSpace=wrap;connectable=0;strokeColor=inherit;overflow=hidden;fillColor=none;top=0;left=0;bottom=0;right=0;pointerEvents=1;" vertex="1" parent="116">
                    <mxGeometry x="510" width="110" height="61" as="geometry">
                        <mxRectangle width="110" height="61" as="alternateBounds"/>
                    </mxGeometry>
                </mxCell>
                <mxCell id="123" style="shape=partialRectangle;html=1;whiteSpace=wrap;connectable=0;strokeColor=inherit;overflow=hidden;fillColor=none;top=0;left=0;bottom=0;right=0;pointerEvents=1;" vertex="1" parent="116">
                    <mxGeometry x="620" width="110" height="61" as="geometry">
                        <mxRectangle width="110" height="61" as="alternateBounds"/>
                    </mxGeometry>
                </mxCell>
                <mxCell id="132" style="shape=tableRow;horizontal=0;startSize=0;swimlaneHead=0;swimlaneBody=0;strokeColor=inherit;top=0;left=0;bottom=0;right=0;collapsible=0;dropTarget=0;fillColor=none;points=[[0,0.5],[1,0.5]];portConstraint=eastwest;" vertex="1" parent="3">
                    <mxGeometry y="923" width="730" height="61" as="geometry"/>
                </mxCell>
                <mxCell id="133" value="15" style="shape=partialRectangle;html=1;whiteSpace=wrap;connectable=0;strokeColor=inherit;overflow=hidden;fillColor=none;top=0;left=0;bottom=0;right=0;pointerEvents=1;" vertex="1" parent="132">
                    <mxGeometry width="49" height="61" as="geometry">
                        <mxRectangle width="49" height="61" as="alternateBounds"/>
                    </mxGeometry>
                </mxCell>
                <mxCell id="134" style="shape=partialRectangle;html=1;whiteSpace=wrap;connectable=0;strokeColor=inherit;overflow=hidden;fillColor=none;top=0;left=0;bottom=0;right=0;pointerEvents=1;" vertex="1" parent="132">
                    <mxGeometry x="49" width="141" height="61" as="geometry">
                        <mxRectangle width="141" height="61" as="alternateBounds"/>
                    </mxGeometry>
                </mxCell>
                <mxCell id="180" value="14" style="shape=partialRectangle;html=1;whiteSpace=wrap;connectable=0;strokeColor=inherit;overflow=hidden;fillColor=none;top=0;left=0;bottom=0;right=0;pointerEvents=1;" vertex="1" parent="132">
                    <mxGeometry x="190" width="60" height="61" as="geometry">
                        <mxRectangle width="60" height="61" as="alternateBounds"/>
                    </mxGeometry>
                </mxCell>
                <mxCell id="135" value="&lt;span style=&quot;color: rgb(0, 0, 0);&quot;&gt;K%ABC?&lt;/span&gt;" style="shape=partialRectangle;html=1;whiteSpace=wrap;connectable=0;strokeColor=inherit;overflow=hidden;fillColor=none;top=0;left=0;bottom=0;right=0;pointerEvents=1;" vertex="1" parent="132">
                    <mxGeometry x="250" width="100" height="61" as="geometry">
                        <mxRectangle width="100" height="61" as="alternateBounds"/>
                    </mxGeometry>
                </mxCell>
                <mxCell id="136" value="D" style="shape=partialRectangle;html=1;whiteSpace=wrap;connectable=0;strokeColor=inherit;overflow=hidden;fillColor=none;top=0;left=0;bottom=0;right=0;pointerEvents=1;" vertex="1" parent="132">
                    <mxGeometry x="350" width="50" height="61" as="geometry">
                        <mxRectangle width="50" height="61" as="alternateBounds"/>
                    </mxGeometry>
                </mxCell>
                <mxCell id="137" value="true" style="shape=partialRectangle;html=1;whiteSpace=wrap;connectable=0;strokeColor=inherit;overflow=hidden;fillColor=none;top=0;left=0;bottom=0;right=0;pointerEvents=1;" vertex="1" parent="132">
                    <mxGeometry x="400" width="110" height="61" as="geometry">
                        <mxRectangle width="110" height="61" as="alternateBounds"/>
                    </mxGeometry>
                </mxCell>
                <mxCell id="138" value="false" style="shape=partialRectangle;html=1;whiteSpace=wrap;connectable=0;strokeColor=inherit;overflow=hidden;fillColor=none;top=0;left=0;bottom=0;right=0;pointerEvents=1;" vertex="1" parent="132">
                    <mxGeometry x="510" width="110" height="61" as="geometry">
                        <mxRectangle width="110" height="61" as="alternateBounds"/>
                    </mxGeometry>
                </mxCell>
                <mxCell id="139" style="shape=partialRectangle;html=1;whiteSpace=wrap;connectable=0;strokeColor=inherit;overflow=hidden;fillColor=none;top=0;left=0;bottom=0;right=0;pointerEvents=1;" vertex="1" parent="132">
                    <mxGeometry x="620" width="110" height="61" as="geometry">
                        <mxRectangle width="110" height="61" as="alternateBounds"/>
                    </mxGeometry>
                </mxCell>
                <mxCell id="140" style="shape=tableRow;horizontal=0;startSize=0;swimlaneHead=0;swimlaneBody=0;strokeColor=inherit;top=0;left=0;bottom=0;right=0;collapsible=0;dropTarget=0;fillColor=none;points=[[0,0.5],[1,0.5]];portConstraint=eastwest;" vertex="1" parent="3">
                    <mxGeometry y="984" width="730" height="61" as="geometry"/>
                </mxCell>
                <mxCell id="141" value="16" style="shape=partialRectangle;html=1;whiteSpace=wrap;connectable=0;strokeColor=inherit;overflow=hidden;fillColor=none;top=0;left=0;bottom=0;right=0;pointerEvents=1;" vertex="1" parent="140">
                    <mxGeometry width="49" height="61" as="geometry">
                        <mxRectangle width="49" height="61" as="alternateBounds"/>
                    </mxGeometry>
                </mxCell>
                <mxCell id="142" style="shape=partialRectangle;html=1;whiteSpace=wrap;connectable=0;strokeColor=inherit;overflow=hidden;fillColor=none;top=0;left=0;bottom=0;right=0;pointerEvents=1;" vertex="1" parent="140">
                    <mxGeometry x="49" width="141" height="61" as="geometry">
                        <mxRectangle width="141" height="61" as="alternateBounds"/>
                    </mxGeometry>
                </mxCell>
                <mxCell id="181" value="15" style="shape=partialRectangle;html=1;whiteSpace=wrap;connectable=0;strokeColor=inherit;overflow=hidden;fillColor=none;top=0;left=0;bottom=0;right=0;pointerEvents=1;" vertex="1" parent="140">
                    <mxGeometry x="190" width="60" height="61" as="geometry">
                        <mxRectangle width="60" height="61" as="alternateBounds"/>
                    </mxGeometry>
                </mxCell>
                <mxCell id="143" value="&lt;span style=&quot;color: rgb(0, 0, 0);&quot;&gt;K%ABC?D&lt;/span&gt;" style="shape=partialRectangle;html=1;whiteSpace=wrap;connectable=0;strokeColor=inherit;overflow=hidden;fillColor=none;top=0;left=0;bottom=0;right=0;pointerEvents=1;" vertex="1" parent="140">
                    <mxGeometry x="250" width="100" height="61" as="geometry">
                        <mxRectangle width="100" height="61" as="alternateBounds"/>
                    </mxGeometry>
                </mxCell>
                <mxCell id="144" value="" style="shape=partialRectangle;html=1;whiteSpace=wrap;connectable=0;strokeColor=inherit;overflow=hidden;fillColor=none;top=0;left=0;bottom=0;right=0;pointerEvents=1;" vertex="1" parent="140">
                    <mxGeometry x="350" width="50" height="61" as="geometry">
                        <mxRectangle width="50" height="61" as="alternateBounds"/>
                    </mxGeometry>
                </mxCell>
                <mxCell id="145" style="shape=partialRectangle;html=1;whiteSpace=wrap;connectable=0;strokeColor=inherit;overflow=hidden;fillColor=none;top=0;left=0;bottom=0;right=0;pointerEvents=1;" vertex="1" parent="140">
                    <mxGeometry x="400" width="110" height="61" as="geometry">
                        <mxRectangle width="110" height="61" as="alternateBounds"/>
                    </mxGeometry>
                </mxCell>
                <mxCell id="146" style="shape=partialRectangle;html=1;whiteSpace=wrap;connectable=0;strokeColor=inherit;overflow=hidden;fillColor=none;top=0;left=0;bottom=0;right=0;pointerEvents=1;" vertex="1" parent="140">
                    <mxGeometry x="510" width="110" height="61" as="geometry">
                        <mxRectangle width="110" height="61" as="alternateBounds"/>
                    </mxGeometry>
                </mxCell>
                <mxCell id="147" value="&lt;span style=&quot;color: rgb(0, 0, 0);&quot;&gt;K%ABC?D&lt;/span&gt;" style="shape=partialRectangle;html=1;whiteSpace=wrap;connectable=0;strokeColor=inherit;overflow=hidden;fillColor=none;top=0;left=0;bottom=0;right=0;pointerEvents=1;" vertex="1" parent="140">
                    <mxGeometry x="620" width="110" height="61" as="geometry">
                        <mxRectangle width="110" height="61" as="alternateBounds"/>
                    </mxGeometry>
                </mxCell>
            </root>
        </mxGraphModel>
    </diagram>
</mxfile>